<svg xmlns="http://www.w3.org/2000/svg" width="176" height="190" viewBox="0 0 176 190">
  <defs>
    <style>
      .cls-1 {
        fill: #ccd0d2;
      }

      .cls-1, .cls-2 {
        fill-rule: evenodd;
      }

      .cls-2 {
        fill: #fff;
        fill-opacity: 0.1;
        stroke: #ccd0d2;
        stroke-linejoin: round;
        stroke-width: 4px;
      }
    </style>
  </defs>
  <path id="diamond" class="cls-1" d="M130.166,82.369l-13.08-13.083a5.152,5.152,0,0,0-3.642-1.509H67.512a5.15,5.15,0,0,0-3.641,1.509L50.791,82.369a5.144,5.144,0,0,0-.209,7.063l36.045,38.387a5.154,5.154,0,0,0,7.7,0l36.048-38.387A5.15,5.15,0,0,0,130.166,82.369ZM96.193,85.8H84.762l5.715-4.763Zm-3.7-6.437L99.527,73.5l5.2,5.2L98.2,84.125Zm-9.736,4.76-6.52-5.431,5.195-5.2,7.038,5.866Zm14.136,4.252-6.412,32.062L84.065,88.377H96.889Zm2.625,0H112.15L93.2,119.966Zm0.7-2.575,6.339-5.28,5.28,5.28H100.211ZM102.6,72.928h9.045l-4.934,4.111ZM90.477,77.69l-5.715-4.762H96.193Zm-16.231-.651-4.933-4.111h9.045ZM74.4,80.521l6.339,5.28H69.124Zm7.035,7.855,6.317,31.589L68.8,88.377H81.44Zm0.551,26.98L56.655,88.377h9.15Zm33.158-26.98H124.3L98.961,115.36Zm0.322-2.575-6.935-6.936,5.917-4.93L126.316,85.8H115.471ZM66.494,73.93l5.924,4.936L65.483,85.8H54.445Z"/>
  <path id="Shape_2_copy_3" data-name="Shape 2 copy 3" class="cls-2" d="M67.568,177.072q-20.232-12.153-40.872-23.6T6.464,118.431q0.409-23.6,0-47.194T26.7,36.194q20.64-11.445,40.872-23.6t40.464,0q20.231,12.153,40.872,23.6t20.232,35.043q-0.41,23.6,0,47.194T148.9,153.474q-20.64,11.445-40.872,23.6T67.568,177.072Z"/>
</svg>
